<svg width="16" height="20" viewBox="0 0 16 20" fill="none" xmlns="http://www.w3.org/2000/svg">
<path d="M2.65625 1.81818C2.46412 1.81818 2.28018 1.89571 2.14432 2.03636C2.00846 2.17702 1.81818 2.55109 1.81818 2.75V17.25C1.81818 17.664 2.25636 18.1818 2.65625 18.1818H5.82443C5.72462 18.698 5.81784 19.5523 6.08523 20H2.1733C1.5969 20 1.04412 19.7629 0.636544 19.341C0.228972 18.919 0 18.3467 0 17.75V2.25C0 1.65326 0.228972 1.08097 0.636544 0.65901C1.04412 0.237053 1.5969 0 2.1733 0H8.05182C8.5 0 8.92983 0.184 9.24665 0.513L14.959 6.427C15.2768 6.755 15.4545 7.2 15.4545 7.664V8.18182H15.329C15.2222 8.17629 15.1151 8.17629 15.0083 8.18182H9.65909C9.14674 8.18182 8.19865 7.78929 7.83636 7.41421C7.47408 7.03914 7.27273 6.53043 7.27273 6V1.81818H2.65625ZM9.09091 2.56V5.86364C9.09091 5.99624 9.22702 6.12441 9.31759 6.21818C9.40816 6.31195 9.531 6.36364 9.65909 6.36364H12.9818L9.09091 2.56Z" fill="#515F6B"/>
</svg>
