<svg width="17" height="20" viewBox="0 0 17 20" fill="none" xmlns="http://www.w3.org/2000/svg">
<path d="M5.06015 10H11.1504M5.06015 14H11.1504M13.1805 19H3.03008C2.49167 19 1.97531 18.7893 1.5946 18.4142C1.21388 18.0391 1 17.5304 1 17V3C1 2.46957 1.21388 1.96086 1.5946 1.58579C1.97531 1.21071 2.49167 1 3.03008 1H8.70008C8.96926 1.00006 9.2274 1.10545 9.41771 1.293L14.9131 6.707C15.1035 6.89449 15.2105 7.1488 15.2105 7.414V17C15.2105 17.5304 14.9966 18.0391 14.6159 18.4142C14.2352 18.7893 13.7189 19 13.1805 19Z" stroke="#515F6B" stroke-width="2" stroke-linecap="round" stroke-linejoin="round"/>
</svg>
