<svg width="42" height="42" viewBox="0 0 42 42" fill="none" xmlns="http://www.w3.org/2000/svg">
<path d="M41.8334 6.79169L18.0626 30.5834L9.22925 21.75L12.1667 18.8125L18.0626 24.7084L38.8959 3.87502L41.8334 6.79169ZM37.2292 17.2917C37.5001 18.4792 37.6667 19.7292 37.6667 21C37.6667 30.2084 30.2084 37.6667 21.0001 37.6667C11.7917 37.6667 4.33341 30.2084 4.33341 21C4.33341 11.7917 11.7917 4.33335 21.0001 4.33335C24.2917 4.33335 27.3334 5.29169 29.9167 6.93752L32.9167 3.93752C29.5417 1.56252 25.4376 0.166687 21.0001 0.166687C9.50008 0.166687 0.166748 9.50002 0.166748 21C0.166748 32.5 9.50008 41.8334 21.0001 41.8334C32.5001 41.8334 41.8334 32.5 41.8334 21C41.8334 18.5209 41.3751 16.1459 40.5834 13.9375L37.2292 17.2917Z" fill="#BD0F72"/>
</svg>
