<svg width="20" height="20" viewBox="0 0 20 20" fill="none" xmlns="http://www.w3.org/2000/svg">
<path fill-rule="evenodd" clip-rule="evenodd" d="M10 20C15.5228 20 20 15.5228 20 10C20 4.47715 15.5228 0 10 0C4.47715 0 0 4.47715 0 10C0 15.5228 4.47715 20 10 20ZM4.74927 15.2507V13.0632L11.2009 6.61156L13.3884 8.79906L6.93677 15.2507H4.74927ZM15.0801 6.2849C15.3076 6.5124 15.3076 6.8799 15.0801 7.1074L14.0126 8.1749L11.8251 5.9874L12.8926 4.9199C13.1201 4.6924 13.4876 4.6924 13.7151 4.9199L15.0801 6.2849Z" fill="#DC2626"/>
</svg>
