<svg width="20" height="20" viewBox="0 0 20 20" fill="none" xmlns="http://www.w3.org/2000/svg">
<path d="M9.08398 15.5002H10.9173V13.6668H9.08398V15.5002ZM10.0007 0.833496C4.94065 0.833496 0.833984 4.94016 0.833984 10.0002C0.833984 15.0602 4.94065 19.1668 10.0007 19.1668C15.0607 19.1668 19.1673 15.0602 19.1673 10.0002C19.1673 4.94016 15.0607 0.833496 10.0007 0.833496ZM10.0007 17.3335C5.95815 17.3335 2.66732 14.0427 2.66732 10.0002C2.66732 5.95766 5.95815 2.66683 10.0007 2.66683C14.0431 2.66683 17.334 5.95766 17.334 10.0002C17.334 14.0427 14.0431 17.3335 10.0007 17.3335ZM10.0007 4.50016C7.97482 4.50016 6.33398 6.141 6.33398 8.16683H8.16732C8.16732 7.1585 8.99232 6.3335 10.0007 6.3335C11.009 6.3335 11.834 7.1585 11.834 8.16683C11.834 10.0002 9.08398 9.771 9.08398 12.7502H10.9173C10.9173 10.6877 13.6673 10.4585 13.6673 8.16683C13.6673 6.141 12.0265 4.50016 10.0007 4.50016Z" fill="#515E6A"/>
</svg>
