<svg width="100" height="100" viewBox="0 0 100 100" fill="none" xmlns="http://www.w3.org/2000/svg">
<rect width="100" height="100" rx="30" fill="#E9EBEC"/>
<path d="M35.9375 63.125H30.3125C30.0639 63.125 29.8254 63.0262 29.6496 62.8504C29.4738 62.6746 29.375 62.4361 29.375 62.1875C29.375 61.9389 29.4738 61.7004 29.6496 61.5246C29.8254 61.3488 30.0639 61.25 30.3125 61.25H35.9375C36.1861 61.25 36.4246 61.3488 36.6004 61.5246C36.7762 61.7004 36.875 61.9389 36.875 62.1875C36.875 62.4361 36.7762 62.6746 36.6004 62.8504C36.4246 63.0262 36.1861 63.125 35.9375 63.125Z" fill="#66707B"/>
<path d="M34.0625 46.25H30.3125C30.0639 46.25 29.8254 46.1512 29.6496 45.9754C29.4738 45.7996 29.375 45.5611 29.375 45.3125C29.375 45.0639 29.4738 44.8254 29.6496 44.6496C29.8254 44.4738 30.0639 44.375 30.3125 44.375H34.0625C34.3111 44.375 34.5496 44.4738 34.7254 44.6496C34.9012 44.8254 35 45.0639 35 45.3125C35 45.5611 34.9012 45.7996 34.7254 45.9754C34.5496 46.1512 34.3111 46.25 34.0625 46.25Z" fill="#66707B"/>
<path d="M34.0625 51.875H30.3125C30.0639 51.875 29.8254 51.7762 29.6496 51.6004C29.4738 51.4246 29.375 51.1861 29.375 50.9375C29.375 50.6889 29.4738 50.4504 29.6496 50.2746C29.8254 50.0988 30.0639 50 30.3125 50H34.0625C34.3111 50 34.5496 50.0988 34.7254 50.2746C34.9012 50.4504 35 50.6889 35 50.9375C35 51.1861 34.9012 51.4246 34.7254 51.6004C34.5496 51.7762 34.3111 51.875 34.0625 51.875Z" fill="#66707B"/>
<path d="M34.0625 57.5H30.3125C30.0639 57.5 29.8254 57.4012 29.6496 57.2254C29.4738 57.0496 29.375 56.8111 29.375 56.5625C29.375 56.3139 29.4738 56.0754 29.6496 55.8996C29.8254 55.7238 30.0639 55.625 30.3125 55.625H34.0625C34.3111 55.625 34.5496 55.7238 34.7254 55.8996C34.9012 56.0754 35 56.3139 35 56.5625C35 56.8111 34.9012 57.0496 34.7254 57.2254C34.5496 57.4012 34.3111 57.5 34.0625 57.5Z" fill="#66707B"/>
<path d="M41.5625 57.5H39.6875C39.4389 57.5 39.2004 57.4012 39.0246 57.2254C38.8488 57.0496 38.75 56.8111 38.75 56.5625C38.75 56.3139 38.8488 56.0754 39.0246 55.8996C39.2004 55.7238 39.4389 55.625 39.6875 55.625H41.5625C41.8111 55.625 42.0496 55.7238 42.2254 55.8996C42.4012 56.0754 42.5 56.3139 42.5 56.5625C42.5 56.8111 42.4012 57.0496 42.2254 57.2254C42.0496 57.4012 41.8111 57.5 41.5625 57.5Z" fill="#66707B"/>
<path d="M43.4375 51.875H39.6875C39.4389 51.875 39.2004 51.7762 39.0246 51.6004C38.8488 51.4246 38.75 51.1861 38.75 50.9375C38.75 50.6889 38.8488 50.4504 39.0246 50.2746C39.2004 50.0988 39.4389 50 39.6875 50H43.4375C43.6861 50 43.9246 50.0988 44.1004 50.2746C44.2762 50.4504 44.375 50.6889 44.375 50.9375C44.375 51.1861 44.2762 51.4246 44.1004 51.6004C43.9246 51.7762 43.6861 51.875 43.4375 51.875Z" fill="#66707B"/>
<path d="M73.2969 33.2666C71.9864 31.962 70.4445 30.9129 68.75 30.1728V24.6875C68.75 23.9416 68.4537 23.2262 67.9262 22.6988C67.3988 22.1713 66.6834 21.875 65.9375 21.875H37.8125C37.5639 21.8751 37.3255 21.9739 37.1497 22.1497L22.1497 37.1497C21.9739 37.3255 21.8751 37.5639 21.875 37.8125V75.3125C21.875 76.0584 22.1713 76.7738 22.6988 77.3012C23.2262 77.8287 23.9416 78.125 24.6875 78.125H65.9375C66.6834 78.125 67.3988 77.8287 67.9262 77.3012C68.4537 76.7738 68.75 76.0584 68.75 75.3125V57.5778C70.9827 56.5988 72.9424 55.0891 74.4586 53.1801C75.9749 51.2711 77.0018 49.0205 77.4499 46.6241C77.8981 44.2278 77.7541 41.7582 77.0302 39.4302C76.3064 37.1022 75.0248 34.9863 73.2969 33.2666ZM36.875 25.0756V35.9375C36.875 36.1861 36.7762 36.4246 36.6004 36.6004C36.4246 36.7762 36.1861 36.875 35.9375 36.875H25.0756L36.875 25.0756ZM66.875 75.3125C66.875 75.5611 66.7762 75.7996 66.6004 75.9754C66.4246 76.1512 66.1861 76.25 65.9375 76.25H24.6875C24.4389 76.25 24.2004 76.1512 24.0246 75.9754C23.8488 75.7996 23.75 75.5611 23.75 75.3125V38.75H35.9375C36.6834 38.75 37.3988 38.4537 37.9262 37.9262C38.4537 37.3988 38.75 36.6834 38.75 35.9375V23.75H65.9375C66.1861 23.75 66.4246 23.8488 66.6004 24.0246C66.7762 24.2004 66.875 24.4389 66.875 24.6875V29.4753C64.1521 28.6816 61.2599 28.6767 58.5344 29.4613C55.8088 30.2459 53.3619 31.7877 51.4778 33.9077C49.5936 36.0276 48.3497 38.6387 47.8905 41.4374C47.4312 44.2362 47.7756 47.1079 48.8834 49.7188C48.3181 49.6859 47.7562 49.8265 47.2729 50.1217C46.7896 50.4169 46.4081 50.8527 46.1793 51.3708C45.9505 51.8888 45.8854 52.4644 45.9927 53.0204C46.1 53.5765 46.3746 54.0865 46.7797 54.4822L36.6753 64.5847C36.3171 64.9306 36.0315 65.3444 35.8349 65.8019C35.6384 66.2594 35.5349 66.7515 35.5306 67.2494C35.5263 67.7474 35.6212 68.2412 35.8097 68.702C35.9983 69.1629 36.2767 69.5816 36.6288 69.9337C36.9809 70.2858 37.3996 70.5642 37.8605 70.7528C38.3213 70.9413 38.8151 71.0362 39.3131 71.0319C39.811 71.0275 40.3031 70.9241 40.7606 70.7276C41.2181 70.531 41.6319 70.2454 41.9778 69.8872L52.0831 59.7828C52.4816 60.1841 52.9921 60.4555 53.5476 60.5613C54.1031 60.6672 54.6776 60.6026 55.1957 60.3759C55.7138 60.1493 56.1513 59.7712 56.4506 59.2914C56.7499 58.8116 56.8971 58.2525 56.8728 57.6875C60.0413 59.0236 63.5729 59.2292 66.875 58.2697V75.3125ZM54.7344 57.1306C54.8215 57.2177 54.8906 57.321 54.9377 57.4348C54.9849 57.5485 55.0092 57.6704 55.0092 57.7936C55.0093 57.9167 54.9851 58.0387 54.938 58.1524C54.8909 58.2662 54.8219 58.3696 54.7348 58.4567C54.6478 58.5438 54.5445 58.6129 54.4307 58.6601C54.317 58.7073 54.195 58.7316 54.0719 58.7316C53.9488 58.7316 53.8268 58.7074 53.713 58.6603C53.5992 58.6133 53.4959 58.5442 53.4087 58.4572L48.1053 53.1537C48.0181 53.0667 47.949 52.9633 47.9018 52.8495C47.8546 52.7357 47.8304 52.6137 47.8304 52.4905C47.8304 52.3673 47.8546 52.2453 47.9018 52.1315C47.949 52.0177 48.0181 51.9143 48.1053 51.8272C48.2839 51.6567 48.5213 51.5616 48.7681 51.5616C49.015 51.5616 49.2524 51.6567 49.4309 51.8272L54.7344 57.1306ZM50.7575 58.4572L40.6522 68.5625C40.2951 68.9036 39.8204 69.0939 39.3266 69.0939C38.8328 69.0939 38.358 68.9036 38.0009 68.5625C37.6494 68.2109 37.452 67.7341 37.452 67.2369C37.452 66.7397 37.6494 66.2629 38.0009 65.9113L48.1053 55.805L50.7575 58.4572ZM53.4153 53.1603L53.4022 53.1472C50.9431 50.6846 49.5627 47.3462 49.5645 43.866C49.5664 40.3859 50.9503 37.0489 53.412 34.5889C55.8737 32.1289 59.2117 30.7474 62.6918 30.748C66.172 30.7486 69.5094 32.1314 71.9703 34.5922C74.4311 37.053 75.8139 40.3905 75.8145 43.8707C75.8151 47.3508 74.4336 50.6888 71.9736 53.1505C69.5136 55.6122 66.1766 56.9961 62.6965 56.998C59.2163 56.9998 55.8779 55.6194 53.4153 53.1603Z" fill="#66707B"/>
<path d="M70.6454 35.9165C68.8045 34.0714 66.3808 32.9219 63.7872 32.6638C61.1937 32.4057 58.5909 33.0551 56.4225 34.5012C54.2542 35.9474 52.6545 38.1008 51.8961 40.5944C51.1378 43.0879 51.2677 45.7674 52.2637 48.1759C53.2598 50.5844 55.0603 52.5729 57.3584 53.8025C59.6565 55.0321 62.3099 55.4266 64.8663 54.9188C67.4227 54.411 69.7239 53.0324 71.3776 51.0178C73.0313 49.0033 73.9351 46.4776 73.9351 43.8712C73.9398 42.3937 73.6516 40.9298 73.0869 39.5644C72.5222 38.199 71.6924 36.9591 70.6454 35.9165ZM69.3188 50.5012C67.7848 52.0389 65.765 52.997 63.6037 53.2121C61.4424 53.4273 59.2733 52.8863 57.4663 51.6812C55.6592 50.4762 54.326 48.6817 53.6939 46.6038C53.0617 44.5258 53.1698 42.2929 53.9997 40.2857C54.8296 38.2785 56.33 36.6212 58.245 35.5964C60.16 34.5715 62.3712 34.2425 64.5016 34.6655C66.632 35.0885 68.5498 36.2372 69.9281 37.9158C71.3064 39.5945 72.0599 41.6992 72.0601 43.8712C72.0643 45.1027 71.8242 46.3228 71.3537 47.4609C70.8832 48.5989 70.1915 49.6323 69.3188 50.5012Z" fill="#66707B"/>
<path d="M67.9939 38.5699C67.2988 37.872 66.4721 37.3189 65.5618 36.9427C64.6514 36.5664 63.6755 36.3745 62.6905 36.378C62.4419 36.378 62.2034 36.4767 62.0276 36.6526C61.8518 36.8284 61.753 37.0668 61.753 37.3155C61.753 37.5641 61.8518 37.8026 62.0276 37.9784C62.2034 38.1542 62.4419 38.253 62.6905 38.253C63.4293 38.2508 64.1613 38.3945 64.8444 38.6761C65.5275 38.9576 66.1482 39.3714 66.6709 39.8936C67.1936 40.4157 67.608 41.036 67.8902 41.7189C68.1725 42.4017 68.317 43.1335 68.3155 43.8724C68.3155 44.121 68.4143 44.3595 68.5901 44.5353C68.7659 44.7111 69.0044 44.8099 69.253 44.8099C69.5016 44.8099 69.7401 44.7111 69.9159 44.5353C70.0917 44.3595 70.1905 44.121 70.1905 43.8724C70.1933 42.8872 70.0006 41.9112 69.6235 41.001C69.2465 40.0908 68.6926 39.2645 67.9939 38.5699Z" fill="#66707B"/>
<path d="M39.6875 46.25H45.3125C45.5611 46.25 45.7996 46.1512 45.9754 45.9754C46.1512 45.7996 46.25 45.5611 46.25 45.3125C46.25 45.0639 46.1512 44.8254 45.9754 44.6496C45.7996 44.4738 45.5611 44.375 45.3125 44.375H39.6875C39.4389 44.375 39.2004 44.4738 39.0246 44.6496C38.8488 44.8254 38.75 45.0639 38.75 45.3125C38.75 45.5611 38.8488 45.7996 39.0246 45.9754C39.2004 46.1512 39.4389 46.25 39.6875 46.25Z" fill="#66707B"/>
</svg>
