<svg width="84" height="106" viewBox="0 0 84 106" fill="none" xmlns="http://www.w3.org/2000/svg">
<path d="M82.1484 26.8203L56.9297 1.60156C56.2266 0.898438 55.2773 0.5 54.2812 0.5H4.5C2.42578 0.5 0.75 2.17578 0.75 4.25V101.75C0.75 103.824 2.42578 105.5 4.5 105.5H79.5C81.5742 105.5 83.25 103.824 83.25 101.75V29.4805C83.25 28.4844 82.8516 27.5234 82.1484 26.8203ZM74.6016 31.2031H52.5469V9.14844L74.6016 31.2031ZM74.8125 97.0625H9.1875V8.9375H44.5781V34.25C44.5781 35.5554 45.0967 36.8073 46.0197 37.7303C46.9427 38.6533 48.1946 39.1719 49.5 39.1719H74.8125V97.0625Z" fill="#A8A8A8"/>
</svg>