<svg width="40" height="40" viewBox="0 0 40 40" fill="none" xmlns="http://www.w3.org/2000/svg">
<rect x="0.5" y="0.5" width="39" height="39" rx="7.5" fill="#BD0F72" stroke="#BD0F72"/>
<path d="M26.625 29.375C27.6605 29.375 28.5 28.5355 28.5 27.5C28.5 26.4645 27.6605 25.625 26.625 25.625C25.5895 25.625 24.75 26.4645 24.75 27.5C24.75 28.5355 25.5895 29.375 26.625 29.375Z" fill="white"/>
<path d="M33.9159 27.0116C33.3367 25.5358 32.3371 24.2625 31.0411 23.3495C29.7451 22.4364 28.2096 21.9237 26.625 21.875C25.0404 21.9237 23.5049 22.4364 22.2089 23.3495C20.9129 24.2625 19.9133 25.5358 19.3341 27.0116L19.125 27.5L19.3341 27.9884C19.9133 29.4642 20.9129 30.7375 22.2089 31.6505C23.5049 32.5636 25.0404 33.0763 26.625 33.125C28.2096 33.0763 29.7451 32.5636 31.0411 31.6505C32.3371 30.7375 33.3367 29.4642 33.9159 27.9884L34.125 27.5L33.9159 27.0116ZM26.625 31.25C25.8833 31.25 25.1583 31.0301 24.5416 30.618C23.9249 30.206 23.4443 29.6203 23.1605 28.9351C22.8766 28.2498 22.8024 27.4958 22.9471 26.7684C23.0917 26.041 23.4489 25.3728 23.9734 24.8484C24.4978 24.3239 25.166 23.9667 25.8934 23.8221C26.6208 23.6774 27.3748 23.7516 28.0601 24.0355C28.7453 24.3193 29.331 24.7999 29.743 25.4166C30.1551 26.0333 30.375 26.7583 30.375 27.5C30.3738 28.4942 29.9783 29.4473 29.2753 30.1503C28.5723 30.8533 27.6192 31.2488 26.625 31.25ZM12.5625 20.9375H17.25V22.8125H12.5625V20.9375ZM12.5625 16.25H23.8125V18.125H12.5625V16.25ZM12.5625 11.5625H23.8125V13.4375H12.5625V11.5625Z" fill="white"/>
<path d="M26.625 6.875H9.75C9.25318 6.87648 8.77712 7.0745 8.42581 7.42581C8.0745 7.77712 7.87648 8.25318 7.875 8.75V31.25C7.87648 31.7468 8.0745 32.2229 8.42581 32.5742C8.77712 32.9255 9.25318 33.1235 9.75 33.125H17.25V31.25H9.75V8.75H26.625V19.0625H28.5V8.75C28.4985 8.25318 28.3005 7.77712 27.9492 7.42581C27.5979 7.0745 27.1218 6.87648 26.625 6.875Z" fill="white"/>
</svg>
