<svg width="21" height="18" viewBox="0 0 21 18" fill="none" xmlns="http://www.w3.org/2000/svg">
<path d="M8.15517 1.81943C8.1905 1.80193 8.22918 1.7947 8.26764 1.79841C8.3061 1.80212 8.34312 1.81665 8.37529 1.84068C8.40746 1.8647 8.43375 1.89744 8.45174 1.93588C8.46974 1.97433 8.47886 2.01725 8.47827 2.0607V4.13667C8.47827 4.37544 8.56252 4.60442 8.7125 4.77325C8.86248 4.94208 9.0659 5.03692 9.278 5.03692C10.3449 5.03692 12.4978 5.04593 14.5563 6.51693C16.1302 7.64044 17.7392 9.68581 18.7069 13.4957C17.0755 11.7258 15.2121 10.7661 13.5806 10.2566C12.5778 9.94479 11.5472 9.75999 10.508 9.70561C10.0826 9.68458 9.65654 9.68939 9.23162 9.72002H9.21083L9.20283 9.72182H9.20123L9.278 10.6185L9.19803 9.72182C9.00063 9.74415 8.81765 9.84828 8.68463 10.014C8.55161 10.1797 8.47806 10.3951 8.47827 10.6185V12.6944C8.47827 12.8889 8.30232 13.0113 8.15517 12.9357L1.78285 7.65484C1.76122 7.63678 1.7388 7.61996 1.71567 7.60443C1.68089 7.5809 1.65211 7.54765 1.63214 7.50789C1.61216 7.46814 1.60166 7.42324 1.60166 7.37757C1.60166 7.33189 1.61216 7.287 1.63214 7.24724C1.65211 7.20749 1.68089 7.17423 1.71567 7.15071C1.73881 7.13519 1.76123 7.11836 1.78285 7.10029L8.15517 1.81943ZM10.0777 11.4935C10.1865 11.4935 10.3065 11.4989 10.4344 11.5043C11.1286 11.5403 12.0883 11.6592 13.1535 11.9922C15.2744 12.6548 17.7856 14.1564 19.4555 17.5378C19.5458 17.7203 19.6897 17.8618 19.8625 17.938C20.0353 18.0142 20.2263 18.0204 20.4027 17.9554C20.5791 17.8905 20.7299 17.7586 20.8294 17.5822C20.9288 17.4058 20.9707 17.1959 20.9478 16.9886C20.2056 10.3088 17.9312 6.79421 15.4136 4.99731C13.4223 3.57492 11.3717 3.30124 10.0777 3.24903V2.0607C10.0779 1.68992 9.98913 1.32597 9.82082 1.00726C9.65251 0.688538 9.41089 0.426871 9.12147 0.249866C8.83204 0.0728604 8.50554 -0.0129205 8.17641 0.00157497C7.84727 0.0160704 7.52772 0.130304 7.25147 0.332223L0.86315 5.62568C0.599045 5.81126 0.381237 6.06944 0.230234 6.37593C0.079231 6.68241 0 7.02711 0 7.37757C0 7.72803 0.079231 8.07273 0.230234 8.37921C0.381237 8.68569 0.599045 8.94388 0.86315 9.12945L7.25147 14.4229C7.52772 14.6248 7.84727 14.7391 8.17641 14.7536C8.50554 14.7681 8.83204 14.6823 9.12147 14.5053C9.41089 14.3283 9.65251 14.0666 9.82082 13.7479C9.98913 13.4292 10.0779 13.0652 10.0777 12.6944V11.4935Z" fill="#8A97A3"/>
</svg>
