<svg width="16" height="16" viewBox="0 0 16 16" fill="none" xmlns="http://www.w3.org/2000/svg">
<path fill-rule="evenodd" clip-rule="evenodd" d="M7.36555 3.52422C5.2435 3.52422 3.52324 5.24448 3.52324 7.36653C3.52324 9.48857 5.2435 11.2088 7.36555 11.2088C9.4876 11.2088 11.2079 9.48857 11.2079 7.36653C11.2079 5.24448 9.4876 3.52422 7.36555 3.52422ZM2.32324 7.36653C2.32324 4.58174 4.58076 2.32422 7.36555 2.32422C10.1503 2.32422 12.4079 4.58174 12.4079 7.36653C12.4079 10.1513 10.1503 12.4088 7.36555 12.4088C4.58076 12.4088 2.32324 10.1513 2.32324 7.36653Z" fill="#8A97A3"/>
<path fill-rule="evenodd" clip-rule="evenodd" d="M10.082 10.082C10.3163 9.84767 10.6962 9.84767 10.9305 10.082L13.5007 12.6522C13.7351 12.8865 13.7351 13.2664 13.5007 13.5007C13.2664 13.7351 12.8865 13.7351 12.6522 13.5007L10.082 10.9305C9.84767 10.6962 9.84767 10.3163 10.082 10.082Z" fill="#8A97A3"/>
</svg>
