<svg width="24" height="24" viewBox="0 0 24 24" fill="none" xmlns="http://www.w3.org/2000/svg">
<rect x="0.5" y="0.5" width="23" height="23" rx="3.5" fill="#FDF2F2" stroke="#DC2626"/>
<path d="M17.6464 7.56212C17.8417 7.36686 17.8417 7.05028 17.6464 6.85502L17.145 6.35355C16.9497 6.15829 16.6331 6.15829 16.4379 6.35355L12.3536 10.4379C12.1583 10.6331 11.8417 10.6331 11.6464 10.4379L7.56212 6.35355C7.36686 6.15829 7.05028 6.15829 6.85502 6.35355L6.35355 6.85502C6.15829 7.05028 6.15829 7.36686 6.35355 7.56212L10.4379 11.6464C10.6331 11.8417 10.6331 12.1583 10.4379 12.3536L6.35355 16.4379C6.15829 16.6331 6.15829 16.9497 6.35355 17.145L6.85502 17.6464C7.05028 17.8417 7.36686 17.8417 7.56212 17.6464L11.6464 13.5621C11.8417 13.3669 12.1583 13.3669 12.3536 13.5621L16.4379 17.6464C16.6331 17.8417 16.9497 17.8417 17.145 17.6464L17.6464 17.145C17.8417 16.9497 17.8417 16.6331 17.6464 16.4379L13.5621 12.3536C13.3669 12.1583 13.3669 11.8417 13.5621 11.6464L17.6464 7.56212Z" fill="#DC2626"/>
</svg>
