<svg width="21" height="23" viewBox="0 0 21 23" fill="none" xmlns="http://www.w3.org/2000/svg">
<path d="M1.43835 5.30528H3.43835H19.4384" stroke="#8A97A3" stroke-width="2" stroke-linecap="round" stroke-linejoin="round"/>
<path d="M6.43835 5.30528V3.30528C6.43835 2.77485 6.64907 2.26614 7.02414 1.89107C7.39921 1.516 7.90792 1.30528 8.43835 1.30528H12.4384C12.9688 1.30528 13.4775 1.516 13.8526 1.89107C14.2276 2.26614 14.4384 2.77485 14.4384 3.30528V5.30528M17.4384 5.30528V19.3053C17.4384 19.8357 17.2276 20.3444 16.8526 20.7195C16.4775 21.0946 15.9688 21.3053 15.4384 21.3053H5.43835C4.90792 21.3053 4.39921 21.0946 4.02414 20.7195C3.64907 20.3444 3.43835 19.8357 3.43835 19.3053V5.30528H17.4384Z" stroke="#8A97A3" stroke-width="2" stroke-linecap="round" stroke-linejoin="round"/>
<path d="M8.43835 10.3053V16.3053" stroke="#8A97A3" stroke-width="2" stroke-linecap="round" stroke-linejoin="round"/>
<path d="M12.4384 10.3053V16.3053" stroke="#8A97A3" stroke-width="2" stroke-linecap="round" stroke-linejoin="round"/>
</svg>
