<svg width="42" height="42" viewBox="0 0 42 42" fill="none" xmlns="http://www.w3.org/2000/svg">
<path d="M41.8332 6.79175L18.0623 30.5834L9.229 21.7501L12.1665 18.8126L18.0623 24.7084L38.8957 3.87508L41.8332 6.79175ZM37.229 17.2917C37.4998 18.4792 37.6665 19.7292 37.6665 21.0001C37.6665 30.2084 30.2082 37.6667 20.9998 37.6667C11.7915 37.6667 4.33317 30.2084 4.33317 21.0001C4.33317 11.7917 11.7915 4.33341 20.9998 4.33341C24.2915 4.33341 27.3332 5.29175 29.9165 6.93758L32.9165 3.93758C29.5415 1.56258 25.4373 0.166748 20.9998 0.166748C9.49984 0.166748 0.166504 9.50008 0.166504 21.0001C0.166504 32.5001 9.49984 41.8334 20.9998 41.8334C32.4998 41.8334 41.8332 32.5001 41.8332 21.0001C41.8332 18.5209 41.3748 16.1459 40.5832 13.9376L37.229 17.2917Z" fill="#BD0F72"/>
</svg>
