<svg width="14" height="14" viewBox="0 0 14 14" fill="none" xmlns="http://www.w3.org/2000/svg">
<path d="M6.41675 8.74996H7.58341V9.91663H6.41675V8.74996ZM6.41675 4.08329H7.58341V7.58329H6.41675V4.08329ZM6.99425 1.16663C3.77425 1.16663 1.16675 3.77996 1.16675 6.99996C1.16675 10.22 3.77425 12.8333 6.99425 12.8333C10.2201 12.8333 12.8334 10.22 12.8334 6.99996C12.8334 3.77996 10.2201 1.16663 6.99425 1.16663ZM7.00008 11.6666C4.42175 11.6666 2.33341 9.57829 2.33341 6.99996C2.33341 4.42163 4.42175 2.33329 7.00008 2.33329C9.57841 2.33329 11.6667 4.42163 11.6667 6.99996C11.6667 9.57829 9.57841 11.6666 7.00008 11.6666Z" fill="#DC2626"/>
</svg>
