<svg width="18" height="18" viewBox="0 0 18 18" fill="none" xmlns="http://www.w3.org/2000/svg">
<path d="M8.1665 11.5H9.83317V13.1666H8.1665V11.5ZM8.1665 4.83329H9.83317V9.83329H8.1665V4.83329ZM8.9915 0.666626C4.3915 0.666626 0.666504 4.39996 0.666504 8.99996C0.666504 13.6 4.3915 17.3333 8.9915 17.3333C13.5998 17.3333 17.3332 13.6 17.3332 8.99996C17.3332 4.39996 13.5998 0.666626 8.9915 0.666626ZM8.99984 15.6666C5.3165 15.6666 2.33317 12.6833 2.33317 8.99996C2.33317 5.31663 5.3165 2.33329 8.99984 2.33329C12.6832 2.33329 15.6665 5.31663 15.6665 8.99996C15.6665 12.6833 12.6832 15.6666 8.99984 15.6666Z" fill="#BD0F72"/>
</svg>
