<svg width="107" height="50" viewBox="0 0 107 50" fill="none" xmlns="http://www.w3.org/2000/svg">
<g clip-path="url(#clip0_1418_46378)">
<path d="M0 38.2707V0H33.6082V38.2707H0ZM8.16553 30.82H25.4342V7.4507H8.16553V30.82Z" fill="#BD0F72"/>
<path d="M77.8418 38.2682V0H106.25V7.42562H86.0116V15.1607H106.25V22.4708H86.0116V30.8432H106.25V38.2682H77.8418Z" fill="#BD0F72"/>
<path d="M2.6252 50C1.10468 50 0 48.9223 0 47.439C0 45.9557 1.10468 44.8761 2.6252 44.8761C4.14572 44.8761 5.24192 45.9539 5.24192 47.439C5.24192 48.9241 4.14209 50 2.6252 50ZM2.6252 45.9214C1.80259 45.9214 1.20637 46.5606 1.20637 47.439C1.20637 48.3173 1.80259 48.9535 2.6252 48.9535C3.4478 48.9535 4.03676 48.3173 4.03676 47.439C4.03616 46.5478 3.45628 45.9214 2.6252 45.9214Z" fill="#BD0F72"/>
<path d="M8.55537 44.8761C7.01791 44.8761 5.90112 45.9539 5.90112 47.439C5.90112 48.9241 7.01851 50 8.55537 50C9.73753 50 10.3549 49.315 10.6667 48.7223L9.65521 48.2378C9.55521 48.4482 9.39952 48.6265 9.20539 48.7529C9.01126 48.8793 8.78627 48.949 8.55537 48.9541C7.73035 48.9541 7.10749 48.3033 7.10749 47.4396C7.10749 46.5612 7.71642 45.922 8.55537 45.922C8.78635 45.9275 9.01134 45.9974 9.20545 46.124C9.39956 46.2506 9.55522 46.4291 9.65521 46.6395L10.6673 46.1502C10.3634 45.5569 9.75266 44.8761 8.55537 44.8761Z" fill="#BD0F72"/>
<path d="M11.6472 49.9076V44.9598H15.21V45.9905H12.8306V46.8835H15.1574V47.9142H12.8306V48.8776H15.21V49.9076H11.6472Z" fill="#BD0F72"/>
<path d="M19.8969 49.9082L19.6499 49.1816H17.6016L17.3528 49.9082H16.0054L17.8491 44.9574H19.4029L21.2461 49.9082H19.8969ZM17.9169 48.1509H19.3327L18.63 46.0284L17.9169 48.1509Z" fill="#BD0F72"/>
<path d="M25.3744 49.9076L23.1802 46.8731V49.9076H21.9956V44.9598H23.2431L25.349 47.8518V44.9598H26.5396V49.9076H25.3744Z" fill="#BD0F72"/>
<path d="M34.3873 49.9076L32.1919 46.8731V49.9076H31.0085V44.9598H32.2561L34.3619 47.8518V44.9598H35.5544V49.9076H34.3873Z" fill="#BD0F72"/>
<path d="M36.8643 49.9076V44.9598H40.4253V45.9905H38.0482V46.8835H40.3738V47.9142H38.0482V48.8776H40.4253V49.9076H36.8643Z" fill="#BD0F72"/>
<path d="M42.715 49.9076V45.9905H41.3125V44.9598H45.2948V45.9905H43.9002V49.9076H42.715Z" fill="#BD0F72"/>
<path d="M50.3219 49.9076L49.5205 46.7808L48.7221 49.9076H47.4389L46.0364 44.9598H47.3723L48.1652 48.2916V48.2928L49.0677 44.9598H49.9751L50.874 48.2928V48.2916L51.6639 44.9598H53.0064L51.6052 49.9076H50.3219Z" fill="#BD0F72"/>
<path d="M55.9337 50C54.4132 50 53.3091 48.9223 53.3091 47.439C53.3091 45.9557 54.4132 44.8761 55.9337 44.8761C57.4542 44.8761 58.5516 45.9539 58.5516 47.439C58.5516 48.9241 57.4506 50 55.9337 50ZM55.9337 45.9214C55.1111 45.9214 54.5148 46.5606 54.5148 47.439C54.5148 48.3173 55.1111 48.9535 55.9337 48.9535C56.7563 48.9535 57.344 48.3173 57.344 47.439C57.3446 46.5478 56.7641 45.9214 55.9337 45.9214Z" fill="#BD0F72"/>
<path d="M62.1451 49.9082L61.305 48.2121H60.5604V49.9082H59.3765V44.9574H61.8279C62.837 44.9574 63.5143 45.6113 63.5143 46.5857C63.5143 47.631 62.7789 47.9717 62.5525 48.0536L62.492 48.0738L63.4992 49.9088L62.1451 49.9082ZM60.6234 47.1802H61.6966C62.0997 47.1802 62.3715 46.9392 62.3715 46.582C62.3715 46.2248 62.0997 45.9905 61.6966 45.9905H60.6234V47.1802Z" fill="#BD0F72"/>
<path d="M67.3514 49.9076L66.0143 47.9692L65.6209 48.4647V49.9076H64.4363V44.9598H65.6209V47.1447L67.2388 44.9598H68.6885L66.7915 47.2695L68.7981 49.9076H67.3514Z" fill="#BD0F72"/>
<path d="M72.6284 49.9076V44.9598H76.1894V45.9905H73.813V46.8835H76.1374V47.9142H73.813V48.8776H76.1894V49.9076H72.6284Z" fill="#BD0F72"/>
<path d="M80.6184 49.9076L79.501 48.1656L78.3836 49.9076H76.9915L78.6942 47.3686L77.1016 44.9598H78.4962L79.501 46.593L80.4974 44.9598H81.8986L80.3073 47.3619L82.0112 49.9076H80.6184Z" fill="#BD0F72"/>
<path d="M82.7449 49.9082V44.9574H85.1976C86.3628 44.9574 86.8839 45.7752 86.8839 46.5857C86.8839 47.3961 86.3628 48.2072 85.1976 48.2072H83.9301V49.9046L82.7449 49.9082ZM83.9307 47.1802H85.0027C85.4003 47.1802 85.6794 46.9355 85.6794 46.5887C85.6794 46.2297 85.4076 45.9905 85.0027 45.9905H83.9307V47.1802Z" fill="#BD0F72"/>
<path d="M90.4655 49.9082L89.6242 48.2121H88.8796V49.9082H87.6938V44.9574H90.1484C91.1556 44.9574 91.8335 45.6113 91.8335 46.5857C91.8335 47.631 91.0981 47.9717 90.8729 48.0536L90.8124 48.0738L91.8184 49.9088L90.4655 49.9082ZM88.8796 47.1802H89.9516C90.3548 47.1802 90.6284 46.9392 90.6284 46.582C90.6284 46.2248 90.3554 45.9905 89.9516 45.9905H88.8796V47.1802Z" fill="#BD0F72"/>
<path d="M92.8438 49.9076V44.9598H96.4054V45.9905H94.0265V46.8835H96.3521V47.9142H94.0265V48.8776H96.4054V49.9076H92.8438Z" fill="#BD0F72"/>
<path d="M97.2468 49.2391C97.7946 49.7425 98.518 49.9988 99.3981 49.9988C100.669 49.9988 101.43 49.3871 101.43 48.3607C101.43 47.2102 100.314 46.9692 99.4998 46.793C98.9974 46.6848 98.6021 46.5998 98.6021 46.33C98.6021 46.1465 98.705 45.9281 99.1953 45.9281C99.7219 45.9285 100.233 46.1068 100.648 46.4346L101.291 45.5428C100.774 45.111 100.097 44.8834 99.3297 44.8834C97.998 44.8834 97.3927 45.689 97.3927 46.4377C97.3927 47.6225 98.4992 47.8512 99.3073 48.0188C99.8175 48.1246 100.221 48.2084 100.221 48.4978C100.221 48.7779 99.9301 48.9528 99.464 48.9528C98.8704 48.9558 98.2982 48.728 97.8661 48.3167L97.2468 49.2391Z" fill="#BD0F72"/>
<path d="M102.067 49.2391C102.612 49.7425 103.339 49.9988 104.217 49.9988C105.489 49.9988 106.249 49.3871 106.249 48.3607C106.249 47.2102 105.133 46.9692 104.318 46.793C103.818 46.6848 103.421 46.5998 103.421 46.33C103.421 46.1465 103.524 45.9281 104.015 45.9281C104.542 45.9285 105.053 46.1068 105.468 46.4346L106.11 45.5434C105.593 45.1116 104.916 44.884 104.15 44.884C102.818 44.884 102.213 45.6896 102.213 46.4383C102.213 47.6231 103.319 47.8518 104.128 48.0194C104.637 48.1253 105.041 48.2091 105.041 48.4984C105.041 48.7785 104.751 48.9535 104.282 48.9535C103.689 48.9566 103.118 48.7288 102.687 48.3173L102.067 49.2391Z" fill="#BD0F72"/>
<path d="M72.873 0H64.7014V24.3033C64.7014 24.3033 48.8691 3.63207 46.0181 0H38.5771V38.264H46.7487V13.9087C46.7487 13.9087 59.7797 31.031 65.4484 38.264H72.8706L72.873 0Z" fill="#BD0F72"/>
</g>
<defs>
<clipPath id="clip0_1418_46378">
<rect width="106.25" height="50" fill="white"/>
</clipPath>
</defs>
</svg>
